<svg id="Capa_1" data-name="Capa 1" xmlns="http://www.w3.org/2000/svg" viewBox="0 0 40 26.69"><defs><style>.cls-1{fill:#7367f0;}</style></defs><g id="Circle"><circle id="Circle-2" data-name="Circle" class="cls-1" cx="3.84" cy="13.48" r="3.84"/></g><g id="m"><path id="m-2" data-name="m" class="cls-1" d="M37.44,2.87A8.63,8.63,0,0,0,30.92.11a8.77,8.77,0,0,0-5.31,1.7A10.25,10.25,0,0,0,24.26,3,8.42,8.42,0,0,0,22.9,1.78,8.9,8.9,0,0,0,17.56.11a8.84,8.84,0,0,0-4.91,1.4A3.73,3.73,0,0,0,9.71,0H9.33A3.48,3.48,0,0,0,5.85,3.48V7.42a6.33,6.33,0,0,1,0,11.81v4a3.48,3.48,0,0,0,3.48,3.49h.41a3.48,3.48,0,0,0,3.48-3.49V13.77a10.37,10.37,0,0,1,1.1-5.24,2.48,2.48,0,0,1,2.41-1.32A2.14,2.14,0,0,1,18.49,8c.29.34.78,1.25.78,3.54V23.2a3.48,3.48,0,0,0,3.47,3.49h.41a3.48,3.48,0,0,0,3.48-3.49V12.46a8.14,8.14,0,0,1,1.24-4.17,2.48,2.48,0,0,1,2.22-1.08A2.14,2.14,0,0,1,31.86,8c.29.34.77,1.25.77,3.54V23.2a3.48,3.48,0,0,0,3.48,3.49h.41A3.48,3.48,0,0,0,40,23.2V10.12A10.17,10.17,0,0,0,37.44,2.87Z"/></g></svg>